<?xml version="1.0" encoding="utf-8"?>
<svg width="1920px" height="1080px" viewBox="0 0 1920 1080" version="1.1" xmlns:xlink="http://www.w3.org/1999/xlink" xmlns="http://www.w3.org/2000/svg">
  <desc>Created with Lunacy</desc>
  <defs>
    <filter filterUnits="userSpaceOnUse" color-interpolation-filters="sRGB" id="filter_1">
      <feFlood flood-opacity="0" result="BackgroundImageFix" />
      <feColorMatrix in="SourceAlpha" type="matrix" values="0 0 0 0 0 0 0 0 0 0 0 0 0 0 0 0 0 0 127 0" />
      <feOffset dx="-2" dy="-20" />
      <feGaussianBlur stdDeviation="25" />
      <feColorMatrix type="matrix" values="0 0 0 0 0.6039216 0 0 0 0 0.5137255 0 0 0 0 1 0 0 0 1 0" />
      <feBlend mode="normal" in2="BackgroundImageFix" result="effect0_dropShadow" />
      <feBlend mode="normal" in="SourceGraphic" in2="effect0_dropShadow" result="shape" />
    </filter>
    <filter filterUnits="userSpaceOnUse" color-interpolation-filters="sRGB" id="filter_2">
      <feFlood flood-opacity="0" result="BackgroundImageFix" />
      <feColorMatrix in="SourceAlpha" type="matrix" values="0 0 0 0 0 0 0 0 0 0 0 0 0 0 0 0 0 0 127 0" />
      <feOffset dx="0" dy="2" />
      <feGaussianBlur stdDeviation="25" />
      <feColorMatrix type="matrix" values="0 0 0 0 0.54509807 0 0 0 0 0.78039217 0 0 0 0 1 0 0 0 1 0" />
      <feBlend mode="normal" in2="BackgroundImageFix" result="effect0_dropShadow" />
      <feBlend mode="normal" in="SourceGraphic" in2="effect0_dropShadow" result="shape" />
    </filter>
    <rect width="1920" height="1080" id="artboard_1" />
    <clipPath id="clip_1">
      <use xlink:href="#artboard_1" clip-rule="evenodd" />
    </clipPath>
  </defs>
  <g id="Full-HD" clip-path="url(#clip_1)">
    <use xlink:href="#artboard_1" stroke="none" fill="#E5EDF1" />
    <path d="M0 175.5C0 78.574 82.3796 0 184 0C285.62 0 368 78.574 368 175.5C368 272.426 285.62 351 184 351C82.3796 351 0 272.426 0 175.5Z" transform="translate(307 602)" id="Ellipse" fill="#9A83FF" fill-rule="evenodd" stroke="none" filter="url(#filter_1)" />
    <path d="M0 196.5C0 87.976 83.9466 0 187.5 0C291.053 0 375 87.976 375 196.5C375 305.024 291.053 393 187.5 393C83.9466 393 0 305.024 0 196.5Z" transform="translate(-149 0)" id="Ellipse-2" fill="#8BC7FF" fill-rule="evenodd" stroke="none" filter="url(#filter_2)" />
  </g>
</svg>